<svg id="Capa_1" enable-background="new 0 0 512 512" height="512" viewBox="0 0 512 512" width="512" xmlns="http://www.w3.org/2000/svg"><g><g><path d="m90.009 381.332 81.773 34.614v-79.164h-89.317v33.166c0 4.965 2.971 9.449 7.544 11.384z" fill="#fb9927"/></g><g><path d="m236.897 287.022h89.316v93.195h-89.316z" fill="#fb9927"/><path d="m326.213 387.944h-89.316c-4.268 0-7.726-3.459-7.726-7.726v-93.195c0-4.267 3.459-7.726 7.726-7.726h89.316c4.268 0 7.726 3.459 7.726 7.726v93.195c.001 4.267-3.458 7.726-7.726 7.726zm-81.589-15.453h73.863v-77.742h-73.863z"/></g><g><path d="m407.777 184.107-81.773-34.614v79.164h89.316v-33.166c0-4.965-2.971-9.448-7.543-11.384z" fill="#17998c"/></g><g><g><path d="m252.731 99.275v-58.588c0-22.471-18.216-40.687-40.687-40.687h-1.537c-7.172 0-12.985 5.814-12.985 12.985v66.375c0 13.925-7.599 26.74-19.816 33.421-23.519 12.86-38.146 37.529-38.146 64.334v334.885h113.674v-186.686c0-27.485 22.281-49.766 49.766-49.766h8.46v-160.617h-43.072c-8.647 0-15.657-7.009-15.657-15.656z" fill="#fdb0a0"/><g fill="#f69583"><path d="m311.462 114.927v146.224h-18.523c-25.27 0-45.833-20.562-45.833-45.833 0-7.201 1.679-14.01 4.646-20.078-2.967-6.068-4.646-12.877-4.646-20.078s1.679-14.011 4.646-20.078c-2.967-6.068-4.646-12.877-4.646-20.078 0-9.921 3.173-19.12 8.55-26.63 2.833 3.966 7.479 6.552 12.733 6.552h43.073z"/><path d="m253.236 395.487v90.161l-113.681 22.139v-90.152z"/><path d="m311.462 249.263v26.29h-8.458c-27.485 0-49.768 22.272-49.768 49.758v25.466l-113.68 22.139v-90.161z"/></g></g><g><path d="m348.899 155.086h-55.958c-11.088 0-20.077-8.989-20.077-20.077 0-11.088 8.989-20.077 20.077-20.077h55.958c8.606 0 15.582 6.976 15.582 15.582v8.989c0 8.606-6.976 15.583-15.582 15.583z" fill="#ffcec0"/><path d="m364.485 130.514v8.993c0 8.602-6.985 15.576-15.587 15.576h-27.65c8.612 0 15.587-6.974 15.587-15.576v-8.993c0-8.602-6.974-15.587-15.587-15.587h27.65c8.602 0 15.587 6.985 15.587 15.587z" fill="#fdb0a0"/><path d="m348.899 195.24h-55.958c-11.088 0-20.077-8.989-20.077-20.077 0-11.088 8.989-20.077 20.077-20.077h55.958c8.606 0 15.582 6.976 15.582 15.582v8.989c0 8.606-6.976 15.583-15.582 15.583z" fill="#ffcec0"/><path d="m364.485 170.67v8.983c0 8.612-6.985 15.587-15.587 15.587h-27.65c8.612 0 15.587-6.974 15.587-15.587v-8.983c0-8.612-6.974-15.587-15.587-15.587h27.65c8.602 0 15.587 6.975 15.587 15.587z" fill="#fdb0a0"/><path d="m348.899 235.394h-55.958c-11.088 0-20.077-8.989-20.077-20.077 0-11.088 8.989-20.077 20.077-20.077h55.958c8.606 0 15.582 6.976 15.582 15.582v8.989c0 8.607-6.976 15.583-15.582 15.583z" fill="#ffcec0"/><path d="m364.485 210.827v8.983c0 8.612-6.985 15.587-15.587 15.587h-27.65c8.612 0 15.587-6.974 15.587-15.587v-8.983c0-8.612-6.974-15.587-15.587-15.587h27.65c8.602 0 15.587 6.974 15.587 15.587z" fill="#fdb0a0"/><path d="m348.899 275.548h-55.958c-11.088 0-20.077-8.989-20.077-20.077 0-11.088 8.989-20.077 20.077-20.077h55.958c8.606 0 15.582 6.976 15.582 15.582v8.989c0 8.607-6.976 15.583-15.582 15.583z" fill="#ffcec0"/></g><g fill="#f69583"><path d="m181.734 211.568c0 4.265-3.461 7.726-7.726 7.726-14.216 0-26.805-7.067-34.449-17.884v-24.292c0-2.586.134-5.161.402-7.706 4.08.196 7.325 3.564 7.325 7.706 0 14.732 11.991 26.723 26.723 26.723 4.264.001 7.725 3.462 7.725 7.727z"/><path d="m266.683 114.834c-4.368 12.177-16.03 20.913-29.69 20.913-4.265 0-7.726-3.451-7.726-7.726 0-4.265 3.461-7.726 7.726-7.726 8.86 0 16.071-7.201 16.071-16.061v-1.762c1.36 6.573 6.84 11.631 13.619 12.362z"/></g></g><path d="m398.656 298.142-316.191 61.599v-73.186c0-9.86 6.986-18.338 16.664-20.223l316.191-61.599v73.186c0 9.86-6.986 18.338-16.664 20.223z" fill="#23f1a8"/><path d="m415.325 204.728v73.194c0 9.859-6.995 18.337-16.668 20.222l-23.076 4.492c3.657-3.75 5.872-8.86 5.872-14.412v-76.893z" fill="#26d192"/><path d="m326.213 356.972-227.083 44.231c-9.678 1.885-16.664 10.363-16.664 20.224v60.684c0 6.48 5.911 11.351 12.271 10.112l214.812-41.841c9.678-1.885 16.664-10.363 16.664-20.224z" fill="#bc83df"/><path d="m326.214 356.968v73.194c0 9.859-6.985 18.337-16.668 20.222l-23.076 4.492c3.657-3.75 5.872-8.86 5.872-14.412v-76.893z" fill="#ae6ad8"/><g><g fill="#804d9e"><path d="m279.339 302.606h-14.794c-4.268 0-7.726-3.459-7.726-7.726s3.459-7.726 7.726-7.726h14.794c1.292 0 2.343-1.051 2.343-2.343s-1.051-2.344-2.343-2.344h-4.724c-9.813 0-17.796-7.983-17.796-17.796 0-9.812 7.983-17.796 17.796-17.796h14.794c4.268 0 7.726 3.459 7.726 7.726s-3.459 7.726-7.726 7.726h-14.794c-1.292 0-2.343 1.051-2.343 2.343s1.051 2.343 2.343 2.343h4.724c9.813 0 17.796 7.983 17.796 17.796 0 9.814-7.983 17.797-17.796 17.797z"/><path d="m189.6 307.757h-17.137v-4.687h11.667c4.268 0 7.726-3.459 7.726-7.726s-3.459-7.726-7.726-7.726h-11.667v-4.686h17.137c4.268 0 7.726-3.459 7.726-7.726s-3.459-7.726-7.726-7.726h-24.863c-4.268 0-7.726 3.459-7.726 7.726v40.278c0 4.267 3.459 7.726 7.726 7.726h24.863c4.268 0 7.726-3.459 7.726-7.726s-3.459-7.727-7.726-7.727z"/><path d="m227.072 257.177c-11.115 0-20.158 9.043-20.158 20.158v27.847c0 4.267 3.459 7.726 7.726 7.726 4.268 0 7.726-3.459 7.726-7.726v-7.262h9.41v7.262c0 4.267 3.459 7.726 7.726 7.726s7.726-3.459 7.726-7.726v-27.847c.002-11.115-9.041-20.158-20.156-20.158zm-4.705 25.29v-5.132c0-2.595 2.111-4.705 4.705-4.705 2.595 0 4.705 2.111 4.705 4.705v5.132z"/><path d="m343.06 239.17c-3.421-2.554-8.26-1.853-10.815 1.565l-6.241 8.355-6.241-8.355c-2.556-3.419-7.394-4.12-10.815-1.565-3.419 2.554-4.119 7.395-1.565 10.814l10.895 14.584v21.07c0 4.267 3.459 7.726 7.726 7.726s7.726-3.459 7.726-7.726v-21.07l10.895-14.584c2.554-3.419 1.854-8.26-1.565-10.814z"/></g></g><g fill="#eaf6ff"><path d="m157.841 462.862c-11.115 0-20.158-9.043-20.158-20.158v-27.847c0-4.267 3.459-7.726 7.726-7.726s7.726 3.459 7.726 7.726v27.847c0 2.595 2.111 4.705 4.705 4.705 2.595 0 4.705-2.111 4.705-4.705v-27.847c0-4.267 3.459-7.726 7.726-7.726 4.268 0 7.726 3.459 7.726 7.726v27.847c.002 11.115-9.041 20.158-20.156 20.158z"/><path d="m210.108 452.56h-14.794c-4.268 0-7.726-3.459-7.726-7.726s3.459-7.726 7.726-7.726h14.794c1.292 0 2.343-1.051 2.343-2.344 0-1.292-1.051-2.343-2.343-2.343h-4.724c-9.813 0-17.796-7.983-17.796-17.796s7.983-17.796 17.796-17.796h14.794c4.268 0 7.726 3.459 7.726 7.726s-3.459 7.726-7.726 7.726h-14.794c-1.292 0-2.343 1.051-2.343 2.343s1.051 2.344 2.343 2.344h4.724c9.813 0 17.796 7.983 17.796 17.796s-7.983 17.796-17.796 17.796z"/><path d="m270.081 426.805h-17.137v-4.687h11.676c4.268 0 7.726-3.459 7.726-7.726s-3.459-7.726-7.726-7.726h-11.676v-4.687h17.137c4.268 0 7.726-3.459 7.726-7.726s-3.459-7.726-7.726-7.726h-24.863c-4.268 0-7.726 3.459-7.726 7.726v40.279c0 4.267 3.459 7.726 7.726 7.726h24.863c4.268 0 7.726-3.459 7.726-7.726.001-4.267-3.458-7.727-7.726-7.727z"/></g><g><path d="m365.582 288.632c9.107-4.452 20.102-.879 24.853 8.075 2.717 5.12 7.644 8.7 13.353 9.702 9.984 1.751 16.78 11.105 15.36 21.141-.812 5.739 1.07 11.532 5.101 15.698 7.048 7.285 7.048 18.847 0 26.132-4.03 4.166-5.912 9.959-5.101 15.698 1.42 10.036-5.376 19.39-15.36 21.141-5.709 1.001-10.637 4.582-13.353 9.702-4.751 8.954-15.747 12.527-24.853 8.075-5.207-2.546-11.298-2.546-16.506 0-9.106 4.452-20.102.879-24.853-8.075-2.717-5.12-7.644-8.7-13.353-9.702-9.984-1.751-16.78-11.105-15.36-21.141.812-5.739-1.07-11.532-5.101-15.698-7.048-7.285-7.048-18.847 0-26.132 4.03-4.166 5.912-9.959 5.101-15.698-1.42-10.036 5.376-19.39 15.36-21.141 5.709-1.001 10.637-4.582 13.353-9.702 4.751-8.954 15.747-12.527 24.853-8.075 5.207 2.545 11.298 2.545 16.506 0z" fill="#fcb44d"/><path d="m424.246 369.382c-3.41 3.523-5.285 8.221-5.285 13.063 0 1.775.371 3.519.371 5.295 0 8.983-6.449 16.885-15.545 18.481-2.854.494-5.512 1.648-7.798 3.307-2.277 1.659-4.193 3.843-5.553 6.397-3.369 6.346-9.869 9.982-16.607 9.982-2.782 0-5.594-.618-8.252-1.916-2.606-1.267-5.429-1.906-8.252-1.906s-5.645.639-8.252 1.906c-2.658 1.298-5.47 1.916-8.252 1.916-1.35 0-2.678-.144-3.987-.433 5.223-1.123 9.91-4.471 12.609-9.55 1.36-2.555 3.266-4.739 5.553-6.397 2.287-1.659 4.945-2.812 7.798-3.307 9.096-1.597 15.545-9.498 15.545-18.481 0-1.769-.371-3.506-.371-5.275 0-4.852 1.875-9.56 5.285-13.083 3.534-3.647 5.295-8.355 5.295-13.063 0-4.718-1.762-9.436-5.295-13.073-3.41-3.523-5.285-8.231-5.285-13.073 0-1.772.371-3.513.371-5.285 0-8.983-6.449-16.885-15.545-18.481-2.854-.505-5.512-1.648-7.798-3.307-2.287-1.659-4.193-3.832-5.553-6.397-2.699-5.079-7.386-8.427-12.609-9.55 1.308-.288 2.637-.433 3.987-.433 2.781 0 5.594.618 8.252 1.916 2.606 1.277 5.429 1.906 8.252 1.906s5.645-.628 8.252-1.906c9.107-4.461 20.109-.886 24.858 8.066 1.36 2.565 3.276 4.739 5.553 6.397 2.287 1.659 4.945 2.802 7.798 3.307 9.096 1.597 15.545 9.498 15.545 18.481 0 1.776-.371 3.519-.371 5.295 0 4.842 1.875 9.539 5.285 13.063 3.523 3.637 5.285 8.355 5.285 13.073.001 4.71-1.761 9.418-5.284 13.065z" fill="#fb9927"/><g><g><g fill="#fdef63"><path d="m379.705 384.18c-11.115 0-20.158-9.043-20.158-20.158v-15.415c0-11.115 9.043-20.158 20.158-20.158s20.158 9.043 20.158 20.158v15.415c0 11.115-9.043 20.158-20.158 20.158zm0-40.279c-2.595 0-4.705 2.111-4.705 4.705v15.415c0 2.595 2.111 4.705 4.705 4.705s4.705-2.111 4.705-4.705v-15.415c0-2.594-2.11-4.705-4.705-4.705z"/><path d="m347.383 328.449h-24.863c-4.268 0-7.726 3.459-7.726 7.726s3.459 7.726 7.726 7.726h4.705v32.552c0 4.267 3.459 7.726 7.726 7.726s7.726-3.459 7.726-7.726v-32.552h4.705c4.268 0 7.726-3.459 7.726-7.726s-3.457-7.726-7.725-7.726z"/></g></g></g></g></g></svg>