<svg height="512" viewBox="0 0 57 59" width="512" xmlns="http://www.w3.org/2000/svg"><g id="Page-1" fill="none" fill-rule="evenodd"><g id="010---mobile-alarm" fill-rule="nonzero"><path id="Shape" d="m7 0h-4c-1.65685425 0-3 1.34314575-3 3v49c-.00202298.154283.01137693.3083819.04.46.2265533 1.4600602 1.48246923 2.5377718 2.96 2.54h28c1.6568542 0 3-1.3431458 3-3v-49c.0020918-.70282257-.2460508-1.38344238-.7-1.92-.5617287-.69206705-1.4087087-1.0897794-2.3-1.08z" fill="#894b9d"/><path id="Shape" d="m34 50v5c0 1.6568542-1.3431458 3-3 3h-28c-1.65685425 0-3-1.3431458-3-3v-5c0 1.6568542 1.34314575 3 3 3h28c1.6568542 0 3-1.3431458 3-3z" fill="#464f5d"/><path id="Shape" d="m32.59.45c-6.27 2.23-31.43 13.43-32.55 50.01-.02862307-.1516181-.04202298-.305717-.04-.46v-47c0-1.65685425 1.34314575-3 3-3h4l2.86 3.05c.5663757.60708315 1.3597411.95123705 2.19.95h9.9c.8302589.00123705 1.6236243-.34291685 2.19-.95l2.86-3.05h4c.5613688.00041778 1.111674.15616453 1.59.45z" fill="#955ba5"/><path id="Shape" d="m27 0-2.86 3.05c-.5663757.60708315-1.3597411.95123705-2.19.95h-9.9c-.8302589.00123705-1.6236243-.34291685-2.19-.95l-2.86-3.05z" fill="#464f5d"/><path id="Shape" d="m7 32c-.55228475 0-1-.4477153-1-1 .00826732-7.7285595 6.2714405-13.9917327 14-14 .5522847 0 1 .4477153 1 1s-.4477153 1-1 1c-6.624447.0071648-11.99283515 5.375553-12 12 0 .2652165-.10535684.5195704-.29289322.7071068s-.44189029.2928932-.70710678.2928932z" fill="#fb7b76"/><path id="Shape" d="m11 32c-.5522847 0-1-.4477153-1-1 .0060624-5.5203344 4.4796656-9.9939376 10-10 .5522847 0 1 .4477153 1 1s-.4477153 1-1 1c-4.4162219.0049599-7.9950401 3.5837781-8 8 0 .5522847-.4477153 1-1 1z" fill="#ff5364"/><path id="Shape" d="m15 32c-.5522847 0-1-.4477153-1-1 .0033074-3.3123376 2.6876624-5.9966926 6-6 .5522847 0 1 .4477153 1 1s-.4477153 1-1 1c-2.209139 0-4 1.790861-4 4 0 .2652165-.1053568.5195704-.2928932.7071068s-.4418903.2928932-.7071068.2928932z" fill="#df4d60"/><path id="Shape" d="m43 59c-.5522847 0-1-.4477153-1-1s.4477153-1 1-1c6.624447-.0071648 11.9928352-5.375553 12-12 0-.5522847.4477153-1 1-1s1 .4477153 1 1c-.0082673 7.7285595-6.2714405 13.9917327-14 14z" fill="#fb7b76"/><path id="Shape" d="m43 55c-.5522847 0-1-.4477153-1-1s.4477153-1 1-1c4.4162219-.0049599 7.9950401-3.5837781 8-8 0-.5522847.4477153-1 1-1s1 .4477153 1 1c-.0060624 5.5203344-4.4796656 9.9939376-10 10z" fill="#ff5364"/><path id="Shape" d="m43 51c-.5522847 0-1-.4477153-1-1s.4477153-1 1-1c2.209139 0 4-1.790861 4-4 0-.5522847.4477153-1 1-1s1 .4477153 1 1c-.0033074 3.3123376-2.6876624 5.9966926-6 6z" fill="#df4d60"/><path id="Shape" d="m44 35v-12c-.0061124-4.7399426-3.3307861-8.8279981-7.97-9.8.6208581-.5624713.9734874-1.3622491.97-2.2 0-1.65685425-1.3431458-3-3-3s-3 1.34314575-3 3c-.0034874.8377509.3491419 1.6375287.97 2.2-4.6392139.9720019-7.9638876 5.0600574-7.97 9.8v12c-1.6568542 0-3 1.3431458-3 3v2c0 .5522847.4477153 1 1 1h7c0 2.7614237 2.2385763 5 5 5s5-2.2385763 5-5h7c.5522847 0 1-.4477153 1-1v-2c0-.7956495-.3160705-1.5587112-.8786797-2.1213203-.5626091-.5626092-1.3256708-.8786797-2.1213203-.8786797z" fill="#f3d55b"/><path id="Shape" d="m47 38v2c0 .5522847-.4477153 1-1 1h-24c-.5522847 0-1-.4477153-1-1v-2c0-1.6568542 1.3431458-3 3-3h20c1.6568542 0 3 1.3431458 3 3z" fill="#f0c419"/><path id="Shape" d="m39 41c0 2.7614237-2.2385763 5-5 5s-5-2.2385763-5-5z" fill="#f29c1f"/><path id="Shape" d="m37 11c.0034874.8377509-.3491419 1.6375287-.97 2.2-1.3401912-.2667255-2.7198088-.2667255-4.06 0-.6208581-.5624713-.9734874-1.3622491-.97-2.2 0-1.65685425 1.3431458-3 3-3s3 1.34314575 3 3z" fill="#f0c419"/></g></g></svg>