<svg xmlns="http://www.w3.org/2000/svg" viewBox="0 0 68.67 70.06"><defs><style>.cls-1{fill:#e4002b;}.cls-2{fill:#41b6e6;}.cls-3{fill:#f1f1f1;}.cls-4{fill:#fff;}.cls-5{fill:none;}.cls-6{fill:#231f20;}</style></defs><title>Asset 30</title><g id="Layer_2" data-name="Layer 2"><g id="Layer_1-2" data-name="Layer 1"><polygon class="cls-1" points="56.95 39.41 46.94 28.71 55.66 22.05 65.02 27.29 56.95 39.41"/><polygon class="cls-2" points="23.12 0 1.8 23.99 39.31 30.86 23.12 0"/><ellipse class="cls-3" cx="34.33" cy="54.06" rx="34.33" ry="16"/><path class="cls-4" d="M44.54,50.79H24.13a2.67,2.67,0,0,1-2.67-2.5L19.31,14.9c5.78-2.49,24.77-2.06,30,0L47.2,48.29A2.66,2.66,0,0,1,44.54,50.79Z"/><path class="cls-5" d="M22.45,48.25a1.66,1.66,0,0,0,1.6,1.63H45.3a1.64,1.64,0,0,0,1.57-1.63l1.46-31.62a50.59,50.59,0,0,0-27.26-.18ZM39.74,23.38a1.12,1.12,0,0,1,2.23,0V42.47a1.12,1.12,0,0,1-2.23,0Zm-6.15-2.25a1.12,1.12,0,0,1,2.23,0V44.7a1.12,1.12,0,0,1-2.23,0Zm-6.16,2.25a1.12,1.12,0,0,1,2.23,0V42.47a1.12,1.12,0,0,1-2.23,0Z"/><path class="cls-5" d="M40.13,12.83c-.55-.06-1.1-.12-1.66-.16h0C39,12.72,39.58,12.77,40.13,12.83Z"/><path class="cls-5" d="M33,12a2.68,2.68,0,0,0,1.52.44c1,0,1.87-.42,2-1,.1-.31-.06-.63-.46-.92a2.4,2.4,0,0,0-1.48-.47,2.18,2.18,0,0,0-2,1C32.54,11.46,32.68,11.76,33,12Z"/><polygon class="cls-5" points="50.18 23.29 50.46 17.26 50.45 17.26 50.18 23.29"/><path class="cls-5" d="M30.56,12.07a2.92,2.92,0,0,0,.21.53h0A2.62,2.62,0,0,1,30.56,12.07Z"/><path class="cls-5" d="M18.56,17.13l.35-.12h0Z"/><path class="cls-6" d="M24.05,53.09a4.83,4.83,0,0,1-4.8-4.69l-1.3-30c-.53.17-1.08.37-1.68.59a2.22,2.22,0,0,1-.76.14,2.12,2.12,0,0,1-2-1.78,2,2,0,0,1,1.35-2.31,58.28,58.28,0,0,1,14.58-3.4,3.72,3.72,0,0,1,.53-2.31A5.77,5.77,0,0,1,38.08,8a4.14,4.14,0,0,1,1.74,3.71,56,56,0,0,1,14,3.35,2.06,2.06,0,0,1,1.32,2.34,2.09,2.09,0,0,1-2,1.75,2.27,2.27,0,0,1-.76-.14l-.94-.34L50.07,48.4a4.81,4.81,0,0,1-4.77,4.69Zm-.66-4.88a.72.72,0,0,0,.66.73H45.3a.72.72,0,0,0,.63-.74l1.43-30.86a49.2,49.2,0,0,0-12.54-1.73A50,50,0,0,0,22,17.17Zm10.3-36.89a1.83,1.83,0,0,0,.87.2,2.15,2.15,0,0,0,1-.22,1.56,1.56,0,0,0-.87-.24A1.86,1.86,0,0,0,33.69,11.32Z"/><path class="cls-4" d="M34.68,7.9a4.66,4.66,0,0,1,2.81.92,3,3,0,0,1,1,3.79,55.22,55.22,0,0,1,15,3.41,1.06,1.06,0,0,1,.69,1.21,1.11,1.11,0,0,1-1.06.94,1.25,1.25,0,0,1-.42-.08c-.73-.28-1.48-.54-2.21-.78l-1.45,31a3.82,3.82,0,0,1-3.77,3.74H24.05a3.83,3.83,0,0,1-3.8-3.74L18.89,17.08c-.89.28-1.86.61-3,1a1.25,1.25,0,0,1-.42.08,1.1,1.1,0,0,1-1-1,1,1,0,0,1,.71-1.2,56.77,56.77,0,0,1,15.51-3.45,2.74,2.74,0,0,1,.1-2.69,4.62,4.62,0,0,1,3.9-2m-.12,4.62c1.51,0,2.92-1,1.63-2a2.5,2.5,0,0,0-1.52-.48c-1.5,0-2.86,1.15-1.66,2a2.75,2.75,0,0,0,1.55.45m-3.79.08h0a2.62,2.62,0,0,1-.22-.52,2.92,2.92,0,0,0,.21.53m9.36.23c-.55-.06-1.1-.12-1.66-.16h0c.55,0,1.11.09,1.66.15M24.05,49.94H45.3a1.7,1.7,0,0,0,1.63-1.69l1.46-31.66a50.13,50.13,0,0,0-13.58-2A50.8,50.8,0,0,0,21,16.4l1.38,31.85a1.72,1.72,0,0,0,1.66,1.69M18.56,17.13l.35-.12h0l-.35.13m31.62,6.16.28-6h0l-.27,6M34.68,5.9a6.61,6.61,0,0,0-5.61,2.95,4.78,4.78,0,0,0-.66,1.92,60.71,60.71,0,0,0-13.94,3.37,3,3,0,0,0-2,3.43,3.11,3.11,0,0,0,3,2.6,3.29,3.29,0,0,0,1.11-.2l.39-.14,1.24,28.61a5.83,5.83,0,0,0,5.8,5.65H45.3a5.81,5.81,0,0,0,5.77-5.65l1.32-28.37a2.89,2.89,0,0,0,.76.1,3.11,3.11,0,0,0,3-2.57,3.06,3.06,0,0,0-1.93-3.45,57.24,57.24,0,0,0-13.43-3.32,5.24,5.24,0,0,0-2.12-3.61,6.65,6.65,0,0,0-4-1.32Zm-11.6,12a49.11,49.11,0,0,1,11.75-1.33A48.12,48.12,0,0,1,46.32,18.1L44.94,47.94H24.38l-1.3-30Z"/><path class="cls-6" d="M21,16.4l1.38,31.85a1.72,1.72,0,0,0,1.66,1.69H45.3a1.7,1.7,0,0,0,1.63-1.69l1.46-31.66a50.13,50.13,0,0,0-13.58-2A50.8,50.8,0,0,0,21,16.4Zm27.32.23L46.87,48.25a1.64,1.64,0,0,1-1.57,1.63H24.05a1.66,1.66,0,0,1-1.6-1.63l-1.38-31.8a50.59,50.59,0,0,1,27.26.18Z"/><path class="cls-6" d="M33,12.07a2.75,2.75,0,0,0,1.55.45c1.51,0,2.92-1,1.63-2a2.5,2.5,0,0,0-1.52-.48C33.17,10.06,31.81,11.21,33,12.07Zm-.37-.92a2.18,2.18,0,0,1,2-1,2.4,2.4,0,0,1,1.48.47c.4.29.56.61.46.92-.18.53-1.08,1-2,1A2.68,2.68,0,0,1,33,12C32.68,11.76,32.54,11.46,32.64,11.15Z"/><path d="M34.7,45.73a1,1,0,0,0,1.06-1V21.13a1.06,1.06,0,0,0-2.11,0V44.7A1,1,0,0,0,34.7,45.73Z"/><path class="cls-6" d="M34.7,45.79a1.06,1.06,0,0,0,1.12-1.09V21.13a1.12,1.12,0,0,0-2.23,0V44.7A1.06,1.06,0,0,0,34.7,45.79ZM33.65,21.13a1.06,1.06,0,0,1,2.11,0V44.7a1.06,1.06,0,0,1-2.11,0Z"/><path d="M40.86,43.5a1,1,0,0,0,1-1V23.38a1.06,1.06,0,0,0-2.11,0V42.47A1,1,0,0,0,40.86,43.5Z"/><path class="cls-6" d="M40.86,43.56A1.06,1.06,0,0,0,42,42.47V23.38a1.12,1.12,0,0,0-2.23,0V42.47A1.06,1.06,0,0,0,40.86,43.56ZM39.8,23.38a1.06,1.06,0,0,1,2.11,0V42.47a1.06,1.06,0,0,1-2.11,0Z"/><path d="M28.55,43.5a1,1,0,0,0,1.05-1V23.38a1.06,1.06,0,0,0-2.11,0V42.47A1,1,0,0,0,28.55,43.5Z"/><path class="cls-6" d="M28.55,43.56a1.06,1.06,0,0,0,1.11-1.09V23.38a1.12,1.12,0,0,0-2.23,0V42.47A1.06,1.06,0,0,0,28.55,43.56ZM27.49,23.38a1.06,1.06,0,0,1,2.11,0V42.47a1.06,1.06,0,0,1-2.11,0Z"/></g></g></svg>