<?xml version="1.0" encoding="iso-8859-1"?>
<!-- Generator: Adobe Illustrator 21.0.0, SVG Export Plug-In . SVG Version: 6.00 Build 0)  -->
<svg xmlns="http://www.w3.org/2000/svg" xmlns:xlink="http://www.w3.org/1999/xlink" version="1.1" id="Capa_1" x="0px" y="0px" viewBox="0 0 512 512" style="enable-background:new 0 0 512 512;" xml:space="preserve" width="512" height="512">
<g>
	<path style="fill:#EC6B59;" d="M242.524,379.969h17.369c31.204-40.015,147.789-16.275,109.813,117.684H132.711   C94.735,363.694,211.32,339.953,242.524,379.969z"/>
	<path style="fill:#BC4142;" d="M284.149,364.686c37.849,9.697,73.168,50.392,49.759,132.967h35.798   C400.729,388.222,328.61,352.343,284.149,364.686z"/>
	<path style="fill:#F6BB93;" d="M251.209,409.969L251.209,409.969c19.771,0,35.798-16.027,35.798-35.798v-44.307h-71.596v44.307   C215.411,393.942,231.438,409.969,251.209,409.969z"/>
	<path style="fill:#E49775;" d="M215.411,365.185c22.273,5.084,47.66,6.442,71.596,4.074v-39.395h-71.596V365.185z"/>
	<g>
		<path style="fill:#F6BB93;" d="M128.179,256.509h40.004v-60.496h-40.004c-16.706,0-30.248,13.543-30.248,30.248v0    C97.93,242.967,111.473,256.509,128.179,256.509z"/>
		<path style="fill:#F6BB93;" d="M374.239,256.509h-40.004v-60.496h40.004c16.706,0,30.248,13.543,30.248,30.248v0    C404.487,242.967,390.945,256.509,374.239,256.509z"/>
	</g>
	<path style="fill:#52668D;" d="M143.552,244.523c-7.459-32.292-18.483-75.332-23.453-96.327   c-31.951-27.741-38.562-86.377-19.242-128.055c2.785-6.008,10.459-7.801,15.599-3.625c12.697,10.317,37.745,20.101,84.568,2.927   c91.185-33.446,167.971,11.584,172.379,34.639c4.93,0,28.876,3.392,28.876,26.94c0,20.029-32.917,126.706-47.109,163.501H143.552z"/>
	<path style="fill:#243B5D;" d="M373.402,54.082c-3.464-18.119-51.629-49.808-116.355-46.315   c48.849,2.97,83.706,30.086,86.482,46.315c4.41,0,25.832,3.392,25.832,26.94c0,20.029-29.447,126.706-42.143,163.501h27.951   c14.192-36.796,47.109-143.472,47.109-163.501C402.278,57.474,378.332,54.082,373.402,54.082z"/>
	<path style="fill:#F6BB93;" d="M138.403,285.311c0,79.665,225.611,79.665,225.611,0c0-45.648-6.105-122.937-19.407-152.981   c-3.158-7.133-10.026-14.452-15.646-17.811c-4.754-2.842-9.74-4.448-14.811-4.448c-5.673,0-11.209,1.817-16.766,4.448   c-14.399,6.803-28.925,19.016-46.176,19.016s-31.777-12.212-46.176-19.016c-5.557-2.631-11.092-4.448-16.766-4.448   c-5.071,0-10.057,1.606-14.811,4.448c-5.631,3.359-12.506,10.69-15.677,17.843C144.531,162.24,138.403,238.796,138.403,285.311z"/>
	<path style="fill:#E49775;" d="M344.607,132.329c-3.158-7.133-10.025-14.452-15.646-17.811c-4.754-2.842-9.74-4.448-14.811-4.448   c-4.126,0-8.178,0.969-12.219,2.505c1.099,0.562,2.187,1.209,3.26,1.943c4.919,3.359,10.93,10.678,13.694,17.811   c11.643,30.044,16.986,107.333,16.986,152.981c0,38.065-45.083,57.94-92.167,59.629c58.79,1.846,120.309-18.029,120.309-59.629   C364.014,239.663,357.909,162.374,344.607,132.329z"/>
	<path style="fill:#BC4142;" d="M216.212,301.509c-5.02,0-8.66-4.784-7.332-9.626c6.023-21.949,22.699-37.728,42.328-37.728   s36.304,15.779,42.328,37.728c1.329,4.841-2.311,9.626-7.332,9.626H216.212z"/>
	<path style="fill:#EBEEF2;" d="M287.773,277.832h-73.128c8.098-14.319,21.453-23.677,36.564-23.677   S279.675,263.513,287.773,277.832z"/>
	<path style="fill:#F6BB93;" d="M397.804,378.955h-19.941c-24.466,0-44.299,19.833-44.299,44.299v14.43   c0,6.92,5.61,12.53,12.53,12.53h10.292v43.572c0,5.917,4.797,10.715,10.715,10.715h0c5.917,0,10.715-4.797,10.715-10.715v-28.098   c0,5.917,4.797,10.715,10.715,10.715h0c5.917,0,10.715-4.797,10.715-10.715c0,5.917,4.797,10.715,10.715,10.715h0   c5.917,0,10.715-4.797,10.715-10.715c0,5.917,4.797,10.715,10.715,10.715h0c5.917,0,10.715-4.797,10.715-10.715v-42.434   C442.103,398.788,422.27,378.955,397.804,378.955z"/>
	<path style="fill:#E49775;" d="M397.804,378.955h-18.473c24.466,0,44.299,19.833,44.299,44.299v42.434   c0,1.983-0.539,3.84-1.478,5.432c1.863,3.161,5.302,5.282,9.236,5.282c5.917,0,10.715-4.797,10.715-10.715v-42.434   C442.103,398.788,422.27,378.955,397.804,378.955z"/>
	<g>
		<path d="M305.089,202.812c-4.142,0-7.5,3.358-7.5,7.5v11.508c0,4.142,3.358,7.5,7.5,7.5c4.142,0,7.5-3.358,7.5-7.5v-11.508    C312.589,206.17,309.231,202.812,305.089,202.812z"/>
		<path d="M286.078,203.522c0.897,0,1.809-0.162,2.696-0.504l41.549-16.017c3.865-1.49,5.79-5.83,4.3-9.696    c-1.49-3.865-5.83-5.788-9.696-4.3l-41.549,16.017c-3.865,1.49-5.79,5.83-4.3,9.696    C280.226,201.696,283.067,203.522,286.078,203.522z"/>
		<path d="M204.83,221.819v-11.508c0-4.142-3.358-7.5-7.5-7.5c-4.142,0-7.5,3.358-7.5,7.5v11.508c0,4.142,3.358,7.5,7.5,7.5    C201.472,229.319,204.83,225.961,204.83,221.819z"/>
		<path d="M216.342,203.522c3.011,0,5.851-1.827,6.999-4.804c1.49-3.865-0.436-8.206-4.3-9.696l-41.549-16.017    c-3.864-1.49-8.206,0.435-9.696,4.3c-1.49,3.865,0.436,8.206,4.3,9.696l41.549,16.017    C214.533,203.36,215.444,203.522,216.342,203.522z"/>
		<path d="M298.212,303.069c2.884-3.781,3.816-8.58,2.557-13.165c-6.84-24.924-25.583-41.967-47.111-43.173    c-0.031-0.002-0.061-0.003-0.092-0.005c-0.111-0.006-0.222-0.012-0.333-0.017c-0.042-0.002-0.084-0.003-0.125-0.005    c-0.165-0.007-0.33-0.014-0.496-0.019c-0.087-0.003-0.174-0.005-0.261-0.008c-0.065-0.001-0.13-0.003-0.194-0.004    c-0.104-0.002-0.208-0.004-0.312-0.006c-0.054-0.001-0.108-0.002-0.162-0.002c-0.157-0.002-0.315-0.003-0.472-0.003    s-0.315,0.001-0.472,0.003c-0.054,0-0.108,0.001-0.162,0.002c-0.104,0.001-0.208,0.003-0.312,0.006    c-0.065,0.001-0.13,0.003-0.194,0.004c-0.087,0.002-0.174,0.005-0.262,0.008c-0.163,0.005-0.327,0.011-0.49,0.018    c-0.044,0.002-0.087,0.004-0.131,0.006c-0.111,0.005-0.221,0.011-0.332,0.017c-0.031,0.002-0.062,0.003-0.094,0.005    c-21.528,1.206-40.271,18.249-47.111,43.173c-1.259,4.585-0.327,9.384,2.557,13.165c2.881,3.778,7.257,5.945,12.007,5.945h69.991    C290.955,309.014,295.331,306.847,298.212,303.069z M272.39,270.338h-42.361c6.076-5.478,13.33-8.578,20.82-8.674    c0.12-0.002,0.24-0.002,0.361-0.002s0.241,0.001,0.361,0.002C259.06,261.76,266.314,264.86,272.39,270.338z M216.175,294.012    c0,0-0.086-0.043-0.06-0.139c0.825-3.008,1.866-5.861,3.093-8.536h64.002c1.228,2.674,2.268,5.528,3.093,8.536    c0.026,0.095-0.06,0.138-0.099,0.141h-69.991L216.175,294.012z"/>
		<path d="M397.802,371.458h-19.94c-28.561,0-51.798,23.236-51.798,51.798v14.43c0,11.044,8.985,20.029,20.029,20.029h2.792v30.916    H176.433v-29.86c0-4.142-3.358-7.5-7.5-7.5s-7.5,3.358-7.5,7.5v29.86h-22.977c-11.008-42.969-5.914-78.284,14.526-99.863    c14.115-14.902,35.134-22.422,54.929-20.018v5.424c0,23.875,19.424,43.299,43.299,43.299s43.299-19.424,43.299-43.299v-5.42    c10.656-1.278,21.962,0.305,32.416,4.606c0.934,0.384,1.9,0.566,2.85,0.566c2.95,0,5.747-1.751,6.939-4.648    c1.576-3.83-0.252-8.213-4.082-9.789c-12.23-5.031-25.472-7.019-38.123-5.816v-5.13c41.957-8.092,77.003-28.59,77.003-63.226    c0-6.74-0.128-13.905-0.372-21.3c1.479-0.256,16.683,2.027,29.79-11.056c7.13-7.13,11.057-16.609,11.057-26.693    c0-18.212-12.964-33.454-30.149-36.98c13.398-42.498,27.938-93.747,27.938-108.256c0-23.744-19.217-31.946-30.877-33.923    c-4.225-8.959-14.372-18.377-28.824-26.559C331.86,10.236,308.924,3.27,285.494,0.934c-29.088-2.9-58.377,0.961-87.055,11.477    c-42.789,15.702-65.624,7.742-77.243-1.698c-4.255-3.461-9.757-4.737-15.098-3.502c-5.346,1.237-9.734,4.806-12.037,9.785    c-5.574,12.018-9.181,25.327-10.722,39.557c-0.446,4.118,2.531,7.818,6.649,8.264c4.12,0.448,7.818-2.53,8.264-6.649    c1.345-12.424,4.602-24.478,9.42-34.868c0.723-1.562,2.709-2.05,4.064-0.948c8.932,7.257,22.763,13.947,43.413,13.945    c13.2,0,29.19-2.736,48.456-9.805c26.534-9.731,53.585-13.308,80.401-10.634c21.4,2.134,42.24,8.435,58.681,17.743    c14.76,8.356,22.448,17.209,23.346,21.898c0.676,3.535,3.767,6.091,7.366,6.091c0.214,0,21.379,0.529,21.379,19.439    c0,11.629-14.438,63.773-29.312,110.343c-2.766-21.547-7.218-46.751-14.001-62.072c-3.567-8.055-11.238-16.778-18.655-21.211    c-32.133-19.208-54.887,17.953-81.599,17.953c-21.327,0-39.819-23.463-62.941-23.463c-16.03,0-30.964,12.364-37.344,26.75    c-5.932,13.381-10.351,34.598-13.506,57.945c-0.647-2.614-1.285-5.189-1.91-7.711c-3.301-13.325-6.153-24.833-8.108-33.085    c-0.362-1.528-1.195-2.904-2.38-3.934c-14.286-12.406-23.737-32.394-26.611-56.281c-0.495-4.111-4.223-7.046-8.342-6.55    c-4.112,0.495-7.045,4.229-6.55,8.342c3.199,26.59,13.762,49.264,29.832,64.167c1.938,8.098,4.581,18.766,7.599,30.947    c0.471,1.902,0.95,3.835,1.435,5.792c-18.072,2.798-31.95,18.461-31.95,37.304c0,10.083,3.927,19.563,11.056,26.693    s16.609,11.056,26.693,11.056h3.095c-0.252,7.74-0.372,14.933-0.372,21.3c0,21.571,13.678,39.412,39.556,51.596    c10.855,5.111,23.567,9.059,37.449,11.711v5.045c-23.892-2.283-48.915,6.938-65.819,24.784    c-11.832,12.491-19.465,28.444-22.689,47.415c-3.582,21.08-1.532,45.408,6.095,72.309c0.915,3.227,3.862,5.454,7.216,5.454    h219.067c3.245,5.032,8.899,8.37,15.318,8.37c10.043,0,18.214-8.171,18.214-18.214v-10.167c1.044,0.187,2.118,0.284,3.215,0.284    c4.001,0,7.705-1.297,10.714-3.493c3.009,2.196,6.713,3.493,10.714,3.493c4.002,0,7.706-1.297,10.715-3.493    c3.009,2.196,6.713,3.493,10.714,3.493c10.043,0,18.214-8.171,18.214-18.214v-42.433    C449.599,394.694,426.363,371.458,397.802,371.458z M396.988,226.267c0,6.077-2.367,11.789-6.659,16.082    c-8.33,8.314-18.076,6.401-19.827,6.668c-0.362-6.996-0.816-14.078-1.354-21.096c2.424-7.016,5.177-15.257,8.079-24.207    C388.364,205.181,396.988,214.736,396.988,226.267z M128.184,249.016c-6.077,0-11.79-2.366-16.087-6.663    s-6.663-10.01-6.663-16.087c0-11.809,9.045-21.545,20.571-22.645c2.343,9.517,4.713,19.226,6.923,28.483    c-0.405,5.748-0.744,11.412-1.023,16.912H128.184z M145.907,285.316c0-15.064,0.66-33.69,2.029-52.881    c0.034-0.266,0.053-0.536,0.058-0.808c2.714-37.519,8.139-77.035,16.643-96.217c3.913-8.826,13.749-17.83,23.631-17.83    c17.266,0,36.779,23.463,62.941,23.463c26.08,0,45.736-23.463,62.94-23.463c9.834,0,19.673,8.929,23.598,17.794    c5.392,12.178,12.626,45.873,16.34,90.781c-0.101,0.941-0.019,1.876,0.223,2.761c0.671,8.53,1.214,17.45,1.592,26.69    c-0.036,0.298-0.055,0.601-0.055,0.909c0,0.513,0.052,1.013,0.15,1.497c0.333,8.837,0.514,17.957,0.514,27.304    c0,34.301-52.974,52.248-105.303,52.248C198.881,337.564,145.907,319.617,145.907,285.316z M251.209,352.563    c9.412,0,18.941-0.556,28.301-1.684v11.434c-0.002,0.092-0.002,0.184,0,0.276v11.584c0,15.604-12.695,28.299-28.299,28.299    s-28.299-12.695-28.299-28.299v-11.582c0.002-0.094,0.002-0.188,0-0.281v-11.381C232.038,352.008,241.526,352.563,251.209,352.563    z M434.6,465.688c0,1.772-1.442,3.215-3.215,3.215c-1.772,0-3.214-1.442-3.214-3.215c0-4.142-3.358-7.5-7.5-7.5    c-4.142,0-7.5,3.358-7.5,7.5c0,1.772-1.442,3.215-3.215,3.215s-3.214-1.442-3.214-3.215c0-4.142-3.358-7.5-7.5-7.5    c-4.142,0-7.5,3.358-7.5,7.5c0,1.772-1.442,3.215-3.215,3.215c-1.772,0-3.214-1.442-3.214-3.215c0-4.142-3.358-7.5-7.5-7.5    c-4.142,0-7.5,3.358-7.5,7.5v28.097c0,1.772-1.442,3.215-3.214,3.215c-1.477,0-2.725-1.002-3.1-2.362    c-0.02-0.1-0.043-0.2-0.067-0.299c-0.031-0.18-0.048-0.365-0.048-0.554v-63.183c0-4.142-3.358-7.5-7.5-7.5s-7.5,3.358-7.5,7.5    v12.112h-2.792c-2.773,0-5.03-2.256-5.03-5.03v-14.43c0-20.29,16.507-36.798,36.798-36.798h19.94    c20.29,0,36.798,16.507,36.798,36.798V465.688z"/>
		<path d="M99.066,324.94c-1.485-3.867-5.825-5.799-9.69-4.314l-20.984,8.055c-3.867,1.484-5.798,5.823-4.314,9.69    c1.485,3.867,5.823,5.798,9.69,4.314l20.984-8.055C98.618,333.146,100.55,328.807,99.066,324.94z"/>
		<path d="M66.852,294.189l22.692,10.103c0.991,0.441,2.027,0.65,3.046,0.65c2.872,0,5.613-1.659,6.856-4.452    c1.685-3.784-0.017-8.217-3.801-9.902l-22.692-10.103c-3.786-1.686-8.217,0.018-9.902,3.801S63.068,292.505,66.852,294.189z"/>
		<path d="M115.708,342.855c-3.785-1.686-8.218,0.018-9.902,3.801l-10.103,22.692c-2.217,4.98,1.464,10.552,6.847,10.552    c2.872,0,5.613-1.659,6.856-4.452l10.103-22.692C121.194,348.973,119.492,344.539,115.708,342.855z"/>
	</g>
</g>















</svg>
